<svg width="156" height="181" viewBox="0 0 156 181" fill="none" xmlns="http://www.w3.org/2000/svg">
<path d="M9.69503 135.782L15.2292 128.368L18.5679 132.599C18.8287 132.93 19.2554 133.082 19.6668 132.992C20.0782 132.902 20.4017 132.584 20.4999 132.175L25.7246 110.385C25.8272 109.958 25.6653 109.511 25.3132 109.248C24.961 108.985 24.4863 108.957 24.1059 109.177L4.70021 120.383C4.33553 120.594 4.12314 120.994 4.15351 121.414C4.18367 121.834 4.45132 122.2 4.84261 122.356L9.84887 124.353L4.31466 131.767C4.14021 132.001 4.06574 132.294 4.10763 132.583C4.14954 132.871 4.30441 133.131 4.5381 133.306L8.1565 136.006C8.64308 136.369 9.33185 136.269 9.69503 135.782Z" fill="black"/>
<path d="M29.989 104.821C30.3518 104.334 30.2519 103.646 29.7655 103.282C29.2789 102.919 28.5901 103.019 28.2269 103.506L26.1606 106.274C25.979 106.517 25.9132 106.811 25.9536 107.09C25.9941 107.368 26.1408 107.631 26.384 107.813C26.8706 108.176 27.5594 108.076 27.9225 107.589L29.989 104.821Z" fill="black"/>
<path d="M22.5869 106.733C23.1876 106.645 23.6041 106.087 23.5168 105.487L23.0203 102.068C22.9331 101.467 22.3752 101.051 21.7744 101.138C21.1736 101.225 20.7571 101.783 20.8444 102.384L21.3409 105.803C21.4282 106.403 21.9861 106.82 22.5869 106.733Z" fill="black"/>
<path d="M19.1651 106.779L16.3964 104.713C15.9098 104.349 15.2209 104.449 14.8578 104.936C14.6763 105.179 14.6105 105.473 14.6509 105.752C14.6913 106.03 14.838 106.293 15.0813 106.475L17.8499 108.541C18.3365 108.904 19.0253 108.804 19.3885 108.318C19.7514 107.831 19.6515 107.143 19.1651 106.779Z" fill="black"/>
<path d="M28.4998 111.145C28.5871 111.746 29.145 112.163 29.7459 112.075L33.1649 111.579C33.7657 111.492 34.182 110.934 34.0948 110.333C34.0075 109.732 33.4498 109.316 32.8488 109.403L29.4298 109.9C28.829 109.987 28.4126 110.545 28.4998 111.145Z" fill="black"/>
<path d="M27.6831 115.478C27.7236 115.756 27.8702 116.019 28.1135 116.201L30.8819 118.267C31.3685 118.63 32.0574 118.53 32.4206 118.043C32.7835 117.557 32.6835 116.868 32.1971 116.505L29.4286 114.439C28.942 114.075 28.2531 114.175 27.89 114.662C27.7085 114.905 27.6427 115.199 27.6831 115.478Z" fill="black"/>
<g clip-path="url(#clip0)">
<path d="M136.085 1.76391C136.082 1.73729 136.077 1.7117 136.073 1.6856C136.068 1.64853 136.064 1.61146 136.056 1.57465C136.05 1.54333 136.042 1.51305 136.034 1.4825C136.026 1.45118 136.019 1.41985 136.01 1.38905C136.001 1.3585 135.989 1.329 135.979 1.29925C135.968 1.26896 135.958 1.23816 135.945 1.2084C135.934 1.18047 135.92 1.15358 135.907 1.12617C135.893 1.09563 135.879 1.06482 135.863 1.0348C135.849 1.0087 135.833 0.984158 135.818 0.959097C135.8 0.929338 135.784 0.899317 135.764 0.87034C135.746 0.843191 135.726 0.817869 135.706 0.791764C135.688 0.766703 135.67 0.74086 135.65 0.716321C135.616 0.674553 135.579 0.634873 135.541 0.596238C135.534 0.588667 135.528 0.580575 135.521 0.573266C135.514 0.566478 135.506 0.560735 135.499 0.553948C135.46 0.515835 135.42 0.478765 135.377 0.443785C135.355 0.42525 135.331 0.409065 135.308 0.391836C135.28 0.370952 135.252 0.349024 135.223 0.329706C135.197 0.311955 135.169 0.296553 135.141 0.280106C135.114 0.26366 135.087 0.24617 135.058 0.231029C135.031 0.216671 135.003 0.204402 134.976 0.19135C134.946 0.176731 134.916 0.16159 134.884 0.148798C134.858 0.137834 134.831 0.12922 134.805 0.119561C134.771 0.107291 134.738 0.0945001 134.703 0.0840581C134.678 0.0762266 134.652 0.0707445 134.626 0.0639572C134.59 0.0548205 134.554 0.0449006 134.518 0.0375912C134.489 0.0321091 134.461 0.0289765 134.432 0.0245387C134.397 0.0193177 134.363 0.0130525 134.328 0.00965885C134.279 0.00495995 134.231 0.00339365 134.182 0.00234945C134.167 0.0020884 134.152 0 134.136 0H41.4637C41.4481 0 41.4329 0.0020884 41.4173 0.00234945C41.3687 0.00339365 41.3204 0.00495995 41.2719 0.00965885C41.2371 0.0130525 41.2037 0.0193177 41.1695 0.0242776C41.1406 0.0287155 41.1113 0.0318481 41.0823 0.0375912C41.0461 0.0446395 41.0108 0.0545594 40.9753 0.0636962C40.9489 0.0704835 40.9223 0.0762266 40.8962 0.0840581C40.862 0.0945001 40.8291 0.10703 40.7957 0.1193C40.7688 0.128959 40.7417 0.137834 40.7153 0.148798C40.6845 0.16159 40.6547 0.17647 40.6247 0.190827C40.5968 0.204141 40.5686 0.21641 40.5412 0.231029C40.513 0.24617 40.4864 0.263138 40.459 0.279584C40.4313 0.296031 40.4033 0.311694 40.3765 0.329706C40.3475 0.349024 40.3203 0.37043 40.2927 0.391314C40.2692 0.408804 40.2452 0.42525 40.2224 0.443785C40.1802 0.478504 40.1399 0.515574 40.1008 0.553687C40.0937 0.560474 40.0862 0.566217 40.0791 0.573266C40.0718 0.580575 40.0655 0.588667 40.0585 0.596238C40.0209 0.634873 39.9841 0.674553 39.9499 0.716321C39.9298 0.74086 39.9123 0.766442 39.8935 0.791764C39.8742 0.817869 39.8538 0.843191 39.8358 0.87034C39.8165 0.899317 39.7995 0.929338 39.7818 0.959097C39.7669 0.984158 39.7512 1.0087 39.7374 1.03454C39.7212 1.06456 39.7077 1.09563 39.693 1.12643C39.6802 1.15358 39.6667 1.18021 39.6552 1.20814C39.6426 1.23816 39.6325 1.26896 39.6218 1.29951C39.6111 1.32927 39.5998 1.3585 39.5904 1.38879C39.581 1.41959 39.5743 1.45092 39.5664 1.48224C39.5589 1.51305 39.55 1.54333 39.544 1.57439C39.5367 1.6112 39.5322 1.64827 39.527 1.68534C39.5234 1.71144 39.5184 1.73729 39.5158 1.76365C39.5093 1.82892 39.5059 1.89418 39.5059 1.95918V131.698C39.5059 131.764 39.5093 131.829 39.5155 131.894C39.5181 131.92 39.5231 131.946 39.5267 131.972C39.532 132.009 39.5364 132.046 39.5437 132.083C39.55 132.114 39.5586 132.144 39.5662 132.175C39.574 132.207 39.5808 132.238 39.5902 132.269C39.5993 132.299 39.6108 132.328 39.6215 132.358C39.6325 132.389 39.6426 132.42 39.6549 132.45C39.6664 132.477 39.68 132.504 39.6928 132.531C39.7071 132.562 39.721 132.593 39.7371 132.623C39.751 132.649 39.7669 132.673 39.7818 132.699C39.7995 132.728 39.8162 132.758 39.8358 132.787C39.8538 132.815 39.8742 132.84 39.8935 132.866C39.9123 132.891 39.9298 132.917 39.9499 132.941C39.9841 132.983 40.0209 133.023 40.0585 133.062C40.0658 133.069 40.0718 133.077 40.0791 133.085C40.0862 133.092 40.094 133.098 40.1011 133.104C40.1402 133.142 40.1802 133.179 40.2224 133.214C40.2457 133.233 40.2702 133.25 40.2942 133.268C40.3214 133.288 40.348 133.309 40.3765 133.328C40.4041 133.347 40.4331 133.363 40.4613 133.38C40.4877 133.396 40.5135 133.412 40.5409 133.427C40.5699 133.442 40.5997 133.455 40.6292 133.469C40.6576 133.483 40.6855 133.497 40.7145 133.509C40.7432 133.521 40.7727 133.531 40.802 133.541C40.833 133.552 40.8638 133.564 40.8954 133.574C40.9244 133.583 40.9539 133.589 40.9831 133.596C41.0158 133.605 41.0479 133.614 41.0813 133.62C41.1152 133.627 41.1494 133.631 41.1839 133.636C41.2129 133.64 41.2413 133.646 41.2706 133.649C41.3348 133.655 41.3993 133.658 41.4637 133.658H134.136C134.201 133.658 134.265 133.655 134.33 133.649C134.36 133.646 134.389 133.64 134.418 133.636C134.452 133.631 134.485 133.627 134.519 133.62C134.553 133.614 134.586 133.604 134.619 133.596C134.648 133.589 134.676 133.582 134.704 133.574C134.737 133.564 134.769 133.552 134.801 133.54C134.829 133.53 134.857 133.521 134.885 133.51C134.915 133.497 134.944 133.482 134.973 133.469C135.002 133.455 135.031 133.442 135.059 133.427C135.087 133.412 135.113 133.395 135.14 133.379C135.168 133.363 135.196 133.347 135.223 133.329C135.252 133.309 135.279 133.288 135.307 133.267C135.331 133.25 135.355 133.233 135.378 133.214C135.42 133.18 135.46 133.142 135.499 133.104C135.506 133.098 135.514 133.092 135.521 133.085C135.528 133.077 135.535 133.069 135.542 133.062C135.579 133.023 135.616 132.983 135.65 132.942C135.67 132.917 135.688 132.891 135.707 132.866C135.726 132.84 135.746 132.814 135.764 132.787C135.784 132.758 135.801 132.728 135.818 132.698C135.833 132.673 135.849 132.649 135.863 132.623C135.879 132.593 135.893 132.562 135.907 132.531C135.92 132.504 135.933 132.477 135.945 132.449C135.958 132.419 135.968 132.389 135.979 132.358C135.989 132.328 136.001 132.299 136.01 132.268C136.019 132.237 136.026 132.206 136.034 132.175C136.042 132.144 136.05 132.114 136.056 132.082C136.064 132.046 136.068 132.008 136.073 131.971C136.077 131.945 136.082 131.919 136.085 131.893C136.091 131.828 136.095 131.763 136.095 131.698V1.95918C136.095 1.89392 136.091 1.82892 136.085 1.76391ZM129.409 3.91575L124.058 9.26701H51.5421L46.1908 3.91575H129.409ZM43.4216 6.6847L48.7731 12.036V121.621L43.4216 126.973V6.6847ZM46.1908 129.742L51.5421 124.391H124.058L129.409 129.742H46.1908ZM78.5328 115.123C81.3229 115.123 83.8765 114.097 85.8419 112.407V120.475H71.2237V115.123H78.5328ZM71.2237 111.207V105.856H85.5759C84.7176 108.939 81.8852 111.207 78.5328 111.207H71.2237ZM71.2237 101.94V91.9548H87.6338C86.4917 94.1437 85.8419 96.6289 85.8419 99.2639V101.94H71.2237V101.94ZM71.4923 88.0391C72.3506 84.9566 75.1809 82.6875 78.5333 82.6875C79.6146 82.6875 80.4909 81.8112 80.4909 80.7297V77.8239C81.3613 77.9725 82.2543 78.0542 83.1664 78.0542C87.9465 78.0542 92.2361 75.9253 95.1463 72.5692V84.8287C93.4121 85.6194 91.8424 86.7098 90.5093 88.0391H71.4923ZM71.2237 62.1957V40.9851H85.9628C86.6507 46.5468 90.231 51.2227 95.1463 53.4635V61.8195C95.1225 61.9414 95.1092 62.067 95.1092 62.1957C95.1092 68.7812 89.7519 74.1384 83.1664 74.1384C76.5809 74.1384 71.2237 68.7812 71.2237 62.1957ZM89.7577 99.2639C89.7577 92.6782 95.1152 87.3207 101.701 87.3207C108.287 87.3207 113.644 92.6782 113.644 99.2639V120.475H89.7577V99.2639ZM106.694 84.2147C105.123 83.6921 103.445 83.4049 101.701 83.4049C100.802 83.4049 99.9209 83.484 99.062 83.6286V54.6618C99.9209 54.8064 100.802 54.8855 101.701 54.8855C102.783 54.8855 103.659 54.0091 103.659 52.9276C103.659 51.8461 102.783 50.9697 101.701 50.9697C95.1155 50.9697 89.7582 45.6125 89.7582 39.0272C89.7582 37.9457 88.8819 37.0693 87.8003 37.0693H75.975C76.806 30.0035 82.0784 24.1915 89.163 22.7766C99.1098 24.5249 106.694 33.2209 106.694 43.6606V84.2147V84.2147ZM72.0355 37.0693H69.2658C68.1843 37.0693 67.3079 37.9457 67.3079 39.0272V62.1957C67.3079 68.5888 71.1127 74.1066 76.5752 76.6137V78.8673C71.8137 79.3208 67.5249 81.4113 64.2732 84.5671V43.6606C64.2732 34.1777 70.5293 26.1295 79.1306 23.4235C75.1663 26.8054 72.5485 31.657 72.0355 37.0693ZM67.8277 86.6223C67.4909 87.688 67.3079 88.8212 67.3079 89.9969V103.898V113.165V120.475H61.9564V99.2642C61.9564 94.2022 64.2398 89.6654 67.8277 86.6223ZM132.179 126.973L126.827 121.622V38.7466C126.827 37.6651 125.951 36.7887 124.869 36.7887C123.788 36.7887 122.911 37.6651 122.911 38.7466V120.475H117.56V99.2639C117.56 93.8195 114.802 89.0078 110.609 86.1509V43.6606C110.609 31.2046 101.498 20.8386 89.5904 18.8723C89.5201 18.8564 89.4489 18.8449 89.3766 18.8368C88.1073 18.6384 86.8073 18.5348 85.4833 18.5348C71.6288 18.5348 60.3575 29.8062 60.3575 43.6606V89.8166C58.8807 92.6458 58.0407 95.8578 58.0407 99.2642V120.475H52.6889V13.1828H122.911V30.0403C122.911 31.1218 123.788 31.9982 124.869 31.9982C125.951 31.9982 126.827 31.1218 126.827 30.0403V12.036L132.179 6.6847V126.973Z" fill="black"/>
<path d="M87.8001 48.6532H80.8496C79.7681 48.6532 78.8918 49.5295 78.8918 50.6111V58.0588H78.631C77.5494 58.0588 76.6731 58.9352 76.6731 60.0167C76.6731 61.0982 77.5494 61.9746 78.631 61.9746H80.8496C81.9312 61.9746 82.8075 61.0982 82.8075 60.0167V52.5689H87.8001C88.8816 52.5689 89.758 51.6926 89.758 50.6111C89.758 49.5295 88.8816 48.6532 87.8001 48.6532Z" fill="black"/>
</g>
<path d="M37.4307 158.315L39.3926 158.938C39.0918 160.031 38.5905 160.845 37.8887 161.378C37.1914 161.907 36.305 162.171 35.2295 162.171C33.8988 162.171 32.805 161.717 31.9482 160.811C31.0915 159.899 30.6631 158.655 30.6631 157.078C30.6631 155.41 31.0938 154.116 31.9551 153.195C32.8164 152.27 33.9489 151.808 35.3525 151.808C36.5785 151.808 37.5742 152.17 38.3398 152.895C38.7956 153.323 39.1374 153.938 39.3652 154.74L37.3623 155.219C37.2438 154.699 36.9954 154.289 36.6172 153.988C36.2435 153.688 35.7878 153.537 35.25 153.537C34.5072 153.537 33.9033 153.804 33.4385 154.337C32.9782 154.87 32.748 155.734 32.748 156.928C32.748 158.195 32.9759 159.097 33.4316 159.635C33.8874 160.173 34.4798 160.441 35.209 160.441C35.7467 160.441 36.2093 160.271 36.5967 159.929C36.984 159.587 37.262 159.049 37.4307 158.315ZM41.1221 162V151.979H43.043V162H41.1221ZM45.0186 153.756V151.979H46.9395V153.756H45.0186ZM45.0186 162V154.74H46.9395V162H45.0186ZM55.2451 156.887L53.3516 157.229C53.2878 156.85 53.1419 156.565 52.9141 156.374C52.6908 156.183 52.3991 156.087 52.0391 156.087C51.5605 156.087 51.1777 156.253 50.8906 156.586C50.6081 156.914 50.4668 157.465 50.4668 158.24C50.4668 159.102 50.6104 159.71 50.8975 160.065C51.1891 160.421 51.5788 160.599 52.0664 160.599C52.431 160.599 52.7295 160.496 52.9619 160.291C53.1943 160.081 53.3584 159.724 53.4541 159.218L55.3408 159.539C55.1449 160.405 54.7689 161.059 54.2129 161.501C53.6569 161.943 52.9118 162.164 51.9775 162.164C50.9157 162.164 50.068 161.829 49.4346 161.159C48.8057 160.489 48.4912 159.562 48.4912 158.377C48.4912 157.178 48.8079 156.246 49.4414 155.581C50.0749 154.911 50.9316 154.576 52.0117 154.576C52.8958 154.576 53.5977 154.768 54.1172 155.15C54.6413 155.529 55.0173 156.107 55.2451 156.887ZM56.6396 162V151.979H58.5605V157.297L60.8096 154.74H63.1748L60.6934 157.393L63.3525 162H61.2812L59.4561 158.739L58.5605 159.676V162H56.6396ZM67.9531 158.268C67.9531 157.63 68.1104 157.012 68.4248 156.415C68.7393 155.818 69.1836 155.362 69.7578 155.048C70.3366 154.733 70.9814 154.576 71.6924 154.576C72.7907 154.576 73.6908 154.934 74.3926 155.649C75.0944 156.36 75.4453 157.26 75.4453 158.35C75.4453 159.448 75.0898 160.359 74.3789 161.084C73.6725 161.804 72.7816 162.164 71.7061 162.164C71.0407 162.164 70.4049 162.014 69.7988 161.713C69.1973 161.412 68.7393 160.972 68.4248 160.394C68.1104 159.81 67.9531 159.102 67.9531 158.268ZM69.9219 158.37C69.9219 159.09 70.0928 159.642 70.4346 160.024C70.7764 160.407 71.1979 160.599 71.6992 160.599C72.2005 160.599 72.6198 160.407 72.957 160.024C73.2988 159.642 73.4697 159.086 73.4697 158.356C73.4697 157.646 73.2988 157.099 72.957 156.716C72.6198 156.333 72.2005 156.142 71.6992 156.142C71.1979 156.142 70.7764 156.333 70.4346 156.716C70.0928 157.099 69.9219 157.65 69.9219 158.37ZM83.5596 162H81.6387V158.295C81.6387 157.511 81.5977 157.005 81.5156 156.777C81.4336 156.545 81.2992 156.365 81.1123 156.237C80.93 156.11 80.709 156.046 80.4492 156.046C80.1165 156.046 79.818 156.137 79.5537 156.319C79.2894 156.502 79.1071 156.743 79.0068 157.044C78.9111 157.345 78.8633 157.901 78.8633 158.712V162H76.9424V154.74H78.7266V155.807C79.36 154.986 80.1576 154.576 81.1191 154.576C81.543 154.576 81.9303 154.654 82.2812 154.809C82.6322 154.959 82.8965 155.153 83.0742 155.39C83.2565 155.627 83.3818 155.896 83.4502 156.196C83.5231 156.497 83.5596 156.928 83.5596 157.488V162ZM90.8467 156.955L89.1035 156.641C89.2995 155.939 89.6367 155.419 90.1152 155.082C90.5938 154.745 91.3047 154.576 92.248 154.576C93.1048 154.576 93.7428 154.679 94.1621 154.884C94.5814 155.084 94.8753 155.342 95.0439 155.656C95.2171 155.966 95.3037 156.538 95.3037 157.372L95.2832 159.614C95.2832 160.252 95.3128 160.724 95.3721 161.029C95.4359 161.33 95.5521 161.654 95.7207 162H93.8203C93.7702 161.872 93.7087 161.683 93.6357 161.433C93.6038 161.319 93.5811 161.243 93.5674 161.207C93.2393 161.526 92.8883 161.765 92.5146 161.925C92.141 162.084 91.7422 162.164 91.3184 162.164C90.571 162.164 89.9808 161.961 89.5479 161.556C89.1195 161.15 88.9053 160.637 88.9053 160.018C88.9053 159.607 89.0033 159.243 89.1992 158.924C89.3952 158.6 89.6686 158.354 90.0195 158.186C90.375 158.012 90.8854 157.862 91.5508 157.734C92.4486 157.566 93.0706 157.409 93.417 157.263V157.071C93.417 156.702 93.3258 156.44 93.1436 156.285C92.9613 156.126 92.6172 156.046 92.1113 156.046C91.7695 156.046 91.5029 156.114 91.3115 156.251C91.1201 156.383 90.9652 156.618 90.8467 156.955ZM93.417 158.514C93.1709 158.596 92.7812 158.694 92.248 158.808C91.7148 158.922 91.3662 159.033 91.2021 159.143C90.9515 159.32 90.8262 159.546 90.8262 159.819C90.8262 160.088 90.9264 160.321 91.127 160.517C91.3275 160.713 91.5827 160.811 91.8926 160.811C92.2389 160.811 92.5693 160.697 92.8838 160.469C93.1162 160.296 93.2689 160.084 93.3418 159.833C93.3919 159.669 93.417 159.357 93.417 158.896V158.514ZM99.043 162H97.1221V154.74H98.9062V155.772C99.2116 155.285 99.485 154.964 99.7266 154.809C99.9727 154.654 100.251 154.576 100.561 154.576C100.998 154.576 101.42 154.697 101.825 154.938L101.23 156.613C100.907 156.404 100.606 156.299 100.328 156.299C100.059 156.299 99.8314 156.374 99.6445 156.524C99.4577 156.67 99.3096 156.937 99.2002 157.324C99.0954 157.712 99.043 158.523 99.043 159.758V162ZM105.988 154.74V156.271H104.676V159.197C104.676 159.79 104.687 160.136 104.71 160.236C104.737 160.332 104.794 160.412 104.881 160.476C104.972 160.539 105.081 160.571 105.209 160.571C105.387 160.571 105.644 160.51 105.981 160.387L106.146 161.877C105.699 162.068 105.193 162.164 104.628 162.164C104.282 162.164 103.969 162.107 103.691 161.993C103.413 161.875 103.208 161.724 103.076 161.542C102.949 161.355 102.86 161.104 102.81 160.79C102.769 160.567 102.748 160.116 102.748 159.437V156.271H101.866V154.74H102.748V153.298L104.676 152.177V154.74H105.988ZM114.547 154.74V156.271H113.234V159.197C113.234 159.79 113.246 160.136 113.269 160.236C113.296 160.332 113.353 160.412 113.439 160.476C113.531 160.539 113.64 160.571 113.768 160.571C113.945 160.571 114.203 160.51 114.54 160.387L114.704 161.877C114.257 162.068 113.752 162.164 113.187 162.164C112.84 162.164 112.528 162.107 112.25 161.993C111.972 161.875 111.767 161.724 111.635 161.542C111.507 161.355 111.418 161.104 111.368 160.79C111.327 160.567 111.307 160.116 111.307 159.437V156.271H110.425V154.74H111.307V153.298L113.234 152.177V154.74H114.547ZM115.436 158.268C115.436 157.63 115.593 157.012 115.907 156.415C116.222 155.818 116.666 155.362 117.24 155.048C117.819 154.733 118.464 154.576 119.175 154.576C120.273 154.576 121.173 154.934 121.875 155.649C122.577 156.36 122.928 157.26 122.928 158.35C122.928 159.448 122.572 160.359 121.861 161.084C121.155 161.804 120.264 162.164 119.188 162.164C118.523 162.164 117.887 162.014 117.281 161.713C116.68 161.412 116.222 160.972 115.907 160.394C115.593 159.81 115.436 159.102 115.436 158.268ZM117.404 158.37C117.404 159.09 117.575 159.642 117.917 160.024C118.259 160.407 118.68 160.599 119.182 160.599C119.683 160.599 120.102 160.407 120.439 160.024C120.781 159.642 120.952 159.086 120.952 158.356C120.952 157.646 120.781 157.099 120.439 156.716C120.102 156.333 119.683 156.142 119.182 156.142C118.68 156.142 118.259 156.333 117.917 156.716C117.575 157.099 117.404 157.65 117.404 158.37ZM128.157 162.479L130.352 162.745C130.388 163 130.472 163.176 130.604 163.271C130.787 163.408 131.074 163.477 131.466 163.477C131.967 163.477 132.343 163.401 132.594 163.251C132.762 163.151 132.89 162.989 132.977 162.766C133.036 162.606 133.065 162.312 133.065 161.884V160.824C132.491 161.608 131.767 162 130.892 162C129.916 162 129.144 161.588 128.574 160.763C128.128 160.111 127.904 159.3 127.904 158.329C127.904 157.112 128.196 156.183 128.779 155.54C129.367 154.897 130.096 154.576 130.967 154.576C131.865 154.576 132.605 154.97 133.188 155.759V154.74H134.986V161.255C134.986 162.112 134.916 162.752 134.774 163.176C134.633 163.6 134.435 163.932 134.18 164.174C133.924 164.415 133.583 164.604 133.154 164.741C132.73 164.878 132.193 164.946 131.541 164.946C130.311 164.946 129.438 164.734 128.923 164.311C128.408 163.891 128.15 163.358 128.15 162.711C128.15 162.647 128.153 162.57 128.157 162.479ZM129.873 158.22C129.873 158.99 130.021 159.555 130.317 159.915C130.618 160.271 130.987 160.448 131.425 160.448C131.894 160.448 132.291 160.266 132.614 159.901C132.938 159.532 133.1 158.988 133.1 158.268C133.1 157.516 132.945 156.957 132.635 156.593C132.325 156.228 131.933 156.046 131.459 156.046C130.999 156.046 130.618 156.226 130.317 156.586C130.021 156.941 129.873 157.486 129.873 158.22ZM136.449 158.268C136.449 157.63 136.606 157.012 136.921 156.415C137.235 155.818 137.68 155.362 138.254 155.048C138.833 154.733 139.478 154.576 140.188 154.576C141.287 154.576 142.187 154.934 142.889 155.649C143.59 156.36 143.941 157.26 143.941 158.35C143.941 159.448 143.586 160.359 142.875 161.084C142.169 161.804 141.278 162.164 140.202 162.164C139.537 162.164 138.901 162.014 138.295 161.713C137.693 161.412 137.235 160.972 136.921 160.394C136.606 159.81 136.449 159.102 136.449 158.268ZM138.418 158.37C138.418 159.09 138.589 159.642 138.931 160.024C139.272 160.407 139.694 160.599 140.195 160.599C140.697 160.599 141.116 160.407 141.453 160.024C141.795 159.642 141.966 159.086 141.966 158.356C141.966 157.646 141.795 157.099 141.453 156.716C141.116 156.333 140.697 156.142 140.195 156.142C139.694 156.142 139.272 156.333 138.931 156.716C138.589 157.099 138.418 157.65 138.418 158.37ZM34.334 170.74V172.271H33.0215V175.197C33.0215 175.79 33.0329 176.136 33.0557 176.236C33.083 176.332 33.14 176.412 33.2266 176.476C33.3177 176.539 33.4271 176.571 33.5547 176.571C33.7324 176.571 33.9899 176.51 34.3271 176.387L34.4912 177.877C34.0446 178.068 33.5387 178.164 32.9736 178.164C32.6273 178.164 32.3151 178.107 32.0371 177.993C31.7591 177.875 31.554 177.724 31.4219 177.542C31.2943 177.355 31.2054 177.104 31.1553 176.79C31.1143 176.567 31.0938 176.116 31.0938 175.437V172.271H30.2119V170.74H31.0938V169.298L33.0215 168.177V170.74H34.334ZM35.2227 174.268C35.2227 173.63 35.3799 173.012 35.6943 172.415C36.0088 171.818 36.4531 171.362 37.0273 171.048C37.6061 170.733 38.251 170.576 38.9619 170.576C40.0602 170.576 40.9603 170.934 41.6621 171.649C42.3639 172.36 42.7148 173.26 42.7148 174.35C42.7148 175.448 42.3594 176.359 41.6484 177.084C40.9421 177.804 40.0511 178.164 38.9756 178.164C38.3102 178.164 37.6745 178.014 37.0684 177.713C36.4668 177.412 36.0088 176.972 35.6943 176.394C35.3799 175.81 35.2227 175.102 35.2227 174.268ZM37.1914 174.37C37.1914 175.09 37.3623 175.642 37.7041 176.024C38.0459 176.407 38.4674 176.599 38.9688 176.599C39.4701 176.599 39.8893 176.407 40.2266 176.024C40.5684 175.642 40.7393 175.086 40.7393 174.356C40.7393 173.646 40.5684 173.099 40.2266 172.716C39.8893 172.333 39.4701 172.142 38.9688 172.142C38.4674 172.142 38.0459 172.333 37.7041 172.716C37.3623 173.099 37.1914 173.65 37.1914 174.37ZM51.4512 170.74V172.271H50.1387V175.197C50.1387 175.79 50.1501 176.136 50.1729 176.236C50.2002 176.332 50.2572 176.412 50.3438 176.476C50.4349 176.539 50.5443 176.571 50.6719 176.571C50.8496 176.571 51.1071 176.51 51.4443 176.387L51.6084 177.877C51.1618 178.068 50.6559 178.164 50.0908 178.164C49.7445 178.164 49.4323 178.107 49.1543 177.993C48.8763 177.875 48.6712 177.724 48.5391 177.542C48.4115 177.355 48.3226 177.104 48.2725 176.79C48.2314 176.567 48.2109 176.116 48.2109 175.437V172.271H47.3291V170.74H48.2109V169.298L50.1387 168.177V170.74H51.4512ZM54.6982 167.979V171.663C55.318 170.938 56.0586 170.576 56.9199 170.576C57.362 170.576 57.7607 170.658 58.1162 170.822C58.4717 170.986 58.7383 171.196 58.916 171.451C59.0983 171.706 59.2214 171.989 59.2852 172.299C59.3535 172.609 59.3877 173.09 59.3877 173.741V178H57.4668V174.165C57.4668 173.404 57.4303 172.921 57.3574 172.716C57.2845 172.511 57.1546 172.349 56.9678 172.23C56.7855 172.107 56.5553 172.046 56.2773 172.046C55.9583 172.046 55.6735 172.123 55.4229 172.278C55.1722 172.433 54.9876 172.668 54.8691 172.982C54.7552 173.292 54.6982 173.753 54.6982 174.363V178H52.7773V167.979H54.6982ZM65.5469 175.689L67.4609 176.011C67.2148 176.713 66.8252 177.248 66.292 177.617C65.7633 177.982 65.1003 178.164 64.3027 178.164C63.0404 178.164 62.1061 177.752 61.5 176.927C61.0215 176.266 60.7822 175.432 60.7822 174.425C60.7822 173.222 61.0967 172.281 61.7256 171.602C62.3545 170.918 63.1497 170.576 64.1113 170.576C65.1914 170.576 66.0436 170.934 66.668 171.649C67.2923 172.36 67.5908 173.452 67.5635 174.924H62.751C62.7646 175.493 62.9196 175.938 63.2158 176.257C63.512 176.571 63.8812 176.729 64.3232 176.729C64.624 176.729 64.877 176.646 65.082 176.482C65.2871 176.318 65.4421 176.054 65.5469 175.689ZM65.6562 173.748C65.6426 173.192 65.499 172.771 65.2256 172.483C64.9521 172.192 64.6195 172.046 64.2275 172.046C63.8083 172.046 63.4619 172.199 63.1885 172.504C62.915 172.809 62.7806 173.224 62.7852 173.748H65.6562ZM72.8887 170.74H74.6592V171.731C75.2926 170.961 76.0469 170.576 76.9219 170.576C77.3867 170.576 77.79 170.672 78.1318 170.863C78.4736 171.055 78.7539 171.344 78.9727 171.731C79.2917 171.344 79.6357 171.055 80.0049 170.863C80.374 170.672 80.7682 170.576 81.1875 170.576C81.7207 170.576 82.1719 170.686 82.541 170.904C82.9102 171.118 83.1859 171.435 83.3682 171.854C83.5003 172.164 83.5664 172.666 83.5664 173.358V178H81.6455V173.851C81.6455 173.131 81.5794 172.666 81.4473 172.456C81.2695 172.183 80.9961 172.046 80.627 172.046C80.3581 172.046 80.1051 172.128 79.8682 172.292C79.6312 172.456 79.4603 172.698 79.3555 173.017C79.2507 173.331 79.1982 173.83 79.1982 174.514V178H77.2773V174.021C77.2773 173.315 77.2432 172.859 77.1748 172.654C77.1064 172.449 76.9993 172.297 76.8535 172.196C76.7122 172.096 76.5186 172.046 76.2725 172.046C75.9762 172.046 75.7096 172.126 75.4727 172.285C75.2357 172.445 75.0648 172.675 74.96 172.976C74.8597 173.276 74.8096 173.775 74.8096 174.473V178H72.8887V170.74ZM86.9229 172.955L85.1797 172.641C85.3757 171.939 85.7129 171.419 86.1914 171.082C86.6699 170.745 87.3809 170.576 88.3242 170.576C89.181 170.576 89.819 170.679 90.2383 170.884C90.6576 171.084 90.9515 171.342 91.1201 171.656C91.2933 171.966 91.3799 172.538 91.3799 173.372L91.3594 175.614C91.3594 176.252 91.389 176.724 91.4482 177.029C91.512 177.33 91.6283 177.654 91.7969 178H89.8965C89.8464 177.872 89.7848 177.683 89.7119 177.433C89.68 177.319 89.6572 177.243 89.6436 177.207C89.3154 177.526 88.9645 177.765 88.5908 177.925C88.2171 178.084 87.8184 178.164 87.3945 178.164C86.6471 178.164 86.057 177.961 85.624 177.556C85.1956 177.15 84.9814 176.637 84.9814 176.018C84.9814 175.607 85.0794 175.243 85.2754 174.924C85.4714 174.6 85.7448 174.354 86.0957 174.186C86.4512 174.012 86.9616 173.862 87.627 173.734C88.5247 173.566 89.1468 173.409 89.4932 173.263V173.071C89.4932 172.702 89.402 172.44 89.2197 172.285C89.0374 172.126 88.6934 172.046 88.1875 172.046C87.8457 172.046 87.5791 172.114 87.3877 172.251C87.1963 172.383 87.0413 172.618 86.9229 172.955ZM89.4932 174.514C89.2471 174.596 88.8574 174.694 88.3242 174.808C87.791 174.922 87.4424 175.033 87.2783 175.143C87.0277 175.32 86.9023 175.546 86.9023 175.819C86.9023 176.088 87.0026 176.321 87.2031 176.517C87.4036 176.713 87.6589 176.811 87.9688 176.811C88.3151 176.811 88.6455 176.697 88.96 176.469C89.1924 176.296 89.3451 176.084 89.418 175.833C89.4681 175.669 89.4932 175.357 89.4932 174.896V174.514ZM95.1191 178H93.1982V170.74H94.9824V171.772C95.2878 171.285 95.5612 170.964 95.8027 170.809C96.0488 170.654 96.3268 170.576 96.6367 170.576C97.0742 170.576 97.4958 170.697 97.9014 170.938L97.3066 172.613C96.9831 172.404 96.6823 172.299 96.4043 172.299C96.1354 172.299 95.9076 172.374 95.7207 172.524C95.5339 172.67 95.3857 172.937 95.2764 173.324C95.1715 173.712 95.1191 174.523 95.1191 175.758V178ZM98.667 178V167.979H100.588V173.297L102.837 170.74H105.202L102.721 173.393L105.38 178H103.309L101.483 174.739L100.588 175.676V178H98.667ZM110.732 175.689L112.646 176.011C112.4 176.713 112.011 177.248 111.478 177.617C110.949 177.982 110.286 178.164 109.488 178.164C108.226 178.164 107.292 177.752 106.686 176.927C106.207 176.266 105.968 175.432 105.968 174.425C105.968 173.222 106.282 172.281 106.911 171.602C107.54 170.918 108.335 170.576 109.297 170.576C110.377 170.576 111.229 170.934 111.854 171.649C112.478 172.36 112.776 173.452 112.749 174.924H107.937C107.95 175.493 108.105 175.938 108.401 176.257C108.698 176.571 109.067 176.729 109.509 176.729C109.81 176.729 110.062 176.646 110.268 176.482C110.473 176.318 110.628 176.054 110.732 175.689ZM110.842 173.748C110.828 173.192 110.685 172.771 110.411 172.483C110.138 172.192 109.805 172.046 109.413 172.046C108.994 172.046 108.647 172.199 108.374 172.504C108.101 172.809 107.966 173.224 107.971 173.748H110.842ZM117.65 170.74V172.271H116.338V175.197C116.338 175.79 116.349 176.136 116.372 176.236C116.399 176.332 116.456 176.412 116.543 176.476C116.634 176.539 116.743 176.571 116.871 176.571C117.049 176.571 117.306 176.51 117.644 176.387L117.808 177.877C117.361 178.068 116.855 178.164 116.29 178.164C115.944 178.164 115.632 178.107 115.354 177.993C115.076 177.875 114.87 177.724 114.738 177.542C114.611 177.355 114.522 177.104 114.472 176.79C114.431 176.567 114.41 176.116 114.41 175.437V172.271H113.528V170.74H114.41V169.298L116.338 168.177V170.74H117.65ZM118.929 170.74H120.72V171.807C120.952 171.442 121.267 171.146 121.663 170.918C122.06 170.69 122.499 170.576 122.982 170.576C123.826 170.576 124.541 170.907 125.129 171.567C125.717 172.228 126.011 173.149 126.011 174.329C126.011 175.541 125.715 176.485 125.122 177.159C124.53 177.829 123.812 178.164 122.969 178.164C122.568 178.164 122.203 178.084 121.875 177.925C121.551 177.765 121.21 177.492 120.85 177.104V180.762H118.929V170.74ZM120.829 174.247C120.829 175.063 120.991 175.667 121.314 176.059C121.638 176.446 122.032 176.64 122.497 176.64C122.944 176.64 123.315 176.462 123.611 176.106C123.908 175.746 124.056 175.159 124.056 174.343C124.056 173.582 123.903 173.017 123.598 172.647C123.292 172.278 122.914 172.094 122.463 172.094C121.993 172.094 121.604 172.276 121.294 172.641C120.984 173.001 120.829 173.536 120.829 174.247ZM127.542 178V167.979H129.463V178H127.542ZM132.874 172.955L131.131 172.641C131.327 171.939 131.664 171.419 132.143 171.082C132.621 170.745 133.332 170.576 134.275 170.576C135.132 170.576 135.77 170.679 136.189 170.884C136.609 171.084 136.903 171.342 137.071 171.656C137.244 171.966 137.331 172.538 137.331 173.372L137.311 175.614C137.311 176.252 137.34 176.724 137.399 177.029C137.463 177.33 137.579 177.654 137.748 178H135.848C135.798 177.872 135.736 177.683 135.663 177.433C135.631 177.319 135.608 177.243 135.595 177.207C135.267 177.526 134.916 177.765 134.542 177.925C134.168 178.084 133.77 178.164 133.346 178.164C132.598 178.164 132.008 177.961 131.575 177.556C131.147 177.15 130.933 176.637 130.933 176.018C130.933 175.607 131.031 175.243 131.227 174.924C131.423 174.6 131.696 174.354 132.047 174.186C132.402 174.012 132.913 173.862 133.578 173.734C134.476 173.566 135.098 173.409 135.444 173.263V173.071C135.444 172.702 135.353 172.44 135.171 172.285C134.989 172.126 134.645 172.046 134.139 172.046C133.797 172.046 133.53 172.114 133.339 172.251C133.147 172.383 132.993 172.618 132.874 172.955ZM135.444 174.514C135.198 174.596 134.809 174.694 134.275 174.808C133.742 174.922 133.394 175.033 133.229 175.143C132.979 175.32 132.854 175.546 132.854 175.819C132.854 176.088 132.954 176.321 133.154 176.517C133.355 176.713 133.61 176.811 133.92 176.811C134.266 176.811 134.597 176.697 134.911 176.469C135.144 176.296 135.296 176.084 135.369 175.833C135.419 175.669 135.444 175.357 135.444 174.896V174.514ZM145.562 172.887L143.668 173.229C143.604 172.85 143.458 172.565 143.23 172.374C143.007 172.183 142.715 172.087 142.355 172.087C141.877 172.087 141.494 172.253 141.207 172.586C140.924 172.914 140.783 173.465 140.783 174.24C140.783 175.102 140.927 175.71 141.214 176.065C141.506 176.421 141.895 176.599 142.383 176.599C142.747 176.599 143.046 176.496 143.278 176.291C143.511 176.081 143.675 175.724 143.771 175.218L145.657 175.539C145.461 176.405 145.085 177.059 144.529 177.501C143.973 177.943 143.228 178.164 142.294 178.164C141.232 178.164 140.384 177.829 139.751 177.159C139.122 176.489 138.808 175.562 138.808 174.377C138.808 173.178 139.124 172.246 139.758 171.581C140.391 170.911 141.248 170.576 142.328 170.576C143.212 170.576 143.914 170.768 144.434 171.15C144.958 171.529 145.334 172.107 145.562 172.887ZM151.229 175.689L153.143 176.011C152.896 176.713 152.507 177.248 151.974 177.617C151.445 177.982 150.782 178.164 149.984 178.164C148.722 178.164 147.788 177.752 147.182 176.927C146.703 176.266 146.464 175.432 146.464 174.425C146.464 173.222 146.778 172.281 147.407 171.602C148.036 170.918 148.831 170.576 149.793 170.576C150.873 170.576 151.725 170.934 152.35 171.649C152.974 172.36 153.272 173.452 153.245 174.924H148.433C148.446 175.493 148.601 175.938 148.897 176.257C149.194 176.571 149.563 176.729 150.005 176.729C150.306 176.729 150.559 176.646 150.764 176.482C150.969 176.318 151.124 176.054 151.229 175.689ZM151.338 173.748C151.324 173.192 151.181 172.771 150.907 172.483C150.634 172.192 150.301 172.046 149.909 172.046C149.49 172.046 149.144 172.199 148.87 172.504C148.597 172.809 148.462 173.224 148.467 173.748H151.338Z" fill="black"/>
<defs>
<clipPath id="clip0">
<rect width="133.658" height="133.658" fill="white" transform="translate(20.9711)"/>
</clipPath>
</defs>
</svg>
