<svg width="64" height="64" viewBox="0 0 64 64" fill="none" xmlns="http://www.w3.org/2000/svg">
<circle cx="32" cy="32" r="32" fill="black"/>
<path d="M48.625 18.7701C44.645 15.5661 38.348 15.0231 38.078 15.0041C37.8729 14.9872 37.6676 15.0345 37.4905 15.1395C37.3135 15.2445 37.1735 15.402 37.09 15.5901C36.9699 15.8603 36.868 16.1382 36.785 16.4221C39.418 16.8671 42.652 17.7621 45.578 19.5781C45.6896 19.6473 45.7865 19.7379 45.8631 19.8446C45.9397 19.9513 45.9946 20.0721 46.0245 20.2C46.0545 20.3279 46.0589 20.4605 46.0377 20.5901C46.0164 20.7198 45.9698 20.8439 45.9005 20.9556C45.8312 21.0672 45.7407 21.1641 45.6339 21.2407C45.5272 21.3173 45.4065 21.3721 45.2785 21.4021C45.1506 21.432 45.0181 21.4365 44.8884 21.4152C44.7588 21.3939 44.6346 21.3473 44.523 21.2781C39.493 18.1551 33.211 18.0001 32 18.0001C30.79 18.0001 24.504 18.1561 19.477 21.2771C19.3654 21.3463 19.2412 21.3929 19.1116 21.4142C18.9819 21.4355 18.8494 21.431 18.7215 21.4011C18.4631 21.3406 18.2394 21.18 18.0995 20.9546C17.9596 20.7291 17.915 20.4573 17.9755 20.199C18.0359 19.9407 18.1966 19.717 18.422 19.5771C21.348 17.7661 24.582 16.8671 27.215 16.4261C27.063 15.9301 26.925 15.6171 26.915 15.5901C26.8318 15.4006 26.6912 15.2421 26.513 15.137C26.3348 15.0318 26.1281 14.9853 25.922 15.0041C25.652 15.0241 19.355 15.5661 15.32 18.8131C13.215 20.7611 9 32.1521 9 42.0001C9 42.1761 9.047 42.344 9.133 42.496C12.039 47.606 19.973 48.9411 21.781 49.0001H21.812C21.9698 49.0005 22.1254 48.9635 22.2662 48.8923C22.407 48.821 22.5289 48.7175 22.622 48.5901L24.449 46.0741C19.516 44.8011 16.996 42.6371 16.852 42.5081C16.6531 42.3325 16.5321 42.0851 16.5156 41.8203C16.4991 41.5555 16.5884 41.295 16.764 41.0961C16.9396 40.8971 17.187 40.7761 17.4518 40.7596C17.7166 40.7431 17.9771 40.8325 18.176 41.0081C18.234 41.0631 22.875 45.0001 32 45.0001C41.14 45.0001 45.781 41.0471 45.828 41.0081C46.0275 40.8337 46.2881 40.7457 46.5524 40.7633C46.8168 40.781 47.0634 40.9028 47.238 41.1021C47.3244 41.2003 47.3907 41.3145 47.4329 41.4384C47.4752 41.5622 47.4926 41.6931 47.4843 41.8237C47.4759 41.9543 47.4419 42.0819 47.3842 42.1993C47.3265 42.3168 47.2463 42.4217 47.148 42.5081C47.004 42.6371 44.484 44.8011 39.551 46.0741L41.379 48.5901C41.472 48.7173 41.5938 48.8208 41.7343 48.892C41.8749 48.9633 42.0304 49.0003 42.188 49.0001H42.218C44.028 48.9411 51.961 47.605 54.868 42.496C54.953 42.344 55 42.1761 55 42.0001C55 32.1521 50.785 20.7621 48.625 18.7701ZM25.5 38.0001C23.566 38.0001 22 36.2101 22 34.0001C22 31.7901 23.566 30.0001 25.5 30.0001C27.434 30.0001 29 31.7901 29 34.0001C29 36.2101 27.434 38.0001 25.5 38.0001ZM38.5 38.0001C36.566 38.0001 35 36.2101 35 34.0001C35 31.7901 36.566 30.0001 38.5 30.0001C40.434 30.0001 42 31.7901 42 34.0001C42 36.2101 40.434 38.0001 38.5 38.0001Z" fill="white"/>
</svg>
