<svg width="64" height="64" viewBox="0 0 64 64" fill="none" xmlns="http://www.w3.org/2000/svg">
<circle cx="32" cy="32" r="32" fill="black"/>
<path d="M32.5 15.5149C37.7065 15.5149 38.324 15.5344 40.3813 15.6286C45.6658 15.8691 48.1341 18.3765 48.3746 23.622C48.4689 25.6776 48.4867 26.2951 48.4867 31.5016C48.4867 36.7098 48.4672 37.3256 48.3746 39.3813C48.1325 44.6219 45.6706 47.1341 40.3813 47.3746C38.324 47.4689 37.7098 47.4884 32.5 47.4884C27.2935 47.4884 26.676 47.4689 24.6204 47.3746C19.3229 47.1325 16.8675 44.6138 16.627 39.3796C16.5328 37.324 16.5132 36.7081 16.5132 31.5C16.5132 26.2935 16.5344 25.6776 16.627 23.6204C16.8691 18.3765 19.331 15.8675 24.6204 15.627C26.6776 15.5344 27.2935 15.5149 32.5 15.5149V15.5149ZM32.5 12C27.2041 12 26.5411 12.0227 24.4611 12.117C17.3794 12.442 13.4436 16.3713 13.1186 23.4595C13.0227 25.5411 13 26.2041 13 31.5C13 36.7959 13.0227 37.4605 13.117 39.5405C13.442 46.6222 17.3713 50.558 24.4595 50.883C26.5411 50.9772 27.2041 51 32.5 51C37.7959 51 38.4605 50.9772 40.5405 50.883C47.6158 50.558 51.5613 46.6287 51.8814 39.5405C51.9773 37.4605 52 36.7959 52 31.5C52 26.2041 51.9772 25.5411 51.883 23.4611C51.5645 16.3859 47.6304 12.4436 40.5421 12.1186C38.4605 12.0227 37.7959 12 32.5 12V12ZM32.5 21.4867C26.9701 21.4867 22.4867 25.9701 22.4867 31.5C22.4867 37.0299 26.9701 41.5149 32.5 41.5149C38.0299 41.5149 42.5133 37.0315 42.5133 31.5C42.5133 25.9701 38.0299 21.4867 32.5 21.4867ZM32.5 38C28.9104 38 26 35.0913 26 31.5C26 27.9104 28.9104 25 32.5 25C36.0896 25 39 27.9104 39 31.5C39 35.0913 36.0896 38 32.5 38ZM42.9098 18.7519C41.6163 18.7519 40.5681 19.8 40.5681 21.0919C40.5681 22.3837 41.6163 23.4319 42.9098 23.4319C44.2016 23.4319 45.2481 22.3837 45.2481 21.0919C45.2481 19.8 44.2016 18.7519 42.9098 18.7519Z" fill="white"/>
</svg>
