<svg width="224" height="370" viewBox="0 0 224 370" fill="none" xmlns="http://www.w3.org/2000/svg">
<g filter="url(#filter0_d)">
<rect x="47.3435" y="84.4867" width="41.9847" height="38.5216" rx="6" fill="#C4C4C4"/>
<rect x="47.8435" y="84.9867" width="40.9847" height="37.5216" rx="5.5" stroke="#989898"/>
</g>
<path d="M71.3242 107.714C71.3242 107.05 71.0898 106.543 70.6211 106.191C70.1523 105.832 69.3086 105.457 68.0898 105.066C66.8711 104.668 65.9062 104.277 65.1953 103.894C63.2578 102.847 62.289 101.437 62.289 99.6637C62.289 98.7418 62.5468 97.9215 63.0625 97.2027C63.5859 96.4762 64.332 95.9098 65.3007 95.5035C66.2773 95.0973 67.3711 94.8941 68.582 94.8941C69.8007 94.8941 70.8867 95.1168 71.8398 95.5621C72.7929 95.9996 73.5312 96.6207 74.0546 97.4254C74.5859 98.2301 74.8515 99.1441 74.8515 100.168H71.3359C71.3359 99.3863 71.0898 98.7809 70.5976 98.3512C70.1054 97.9137 69.414 97.6949 68.5234 97.6949C67.664 97.6949 66.9961 97.8785 66.5195 98.2457C66.0429 98.6051 65.8046 99.0816 65.8046 99.6754C65.8046 100.23 66.082 100.695 66.6367 101.07C67.1992 101.445 68.0234 101.796 69.1093 102.125C71.1093 102.726 72.5664 103.472 73.4804 104.363C74.3945 105.254 74.8515 106.363 74.8515 107.691C74.8515 109.168 74.2929 110.328 73.1757 111.171C72.0586 112.007 70.5546 112.425 68.664 112.425C67.3515 112.425 66.1562 112.187 65.0781 111.711C64 111.226 63.1757 110.566 62.6054 109.73C62.0429 108.894 61.7617 107.925 61.7617 106.824H65.289C65.289 108.707 66.414 109.648 68.664 109.648C69.5 109.648 70.1523 109.48 70.6211 109.144C71.0898 108.8 71.3242 108.324 71.3242 107.714Z" fill="black"/>
<g filter="url(#filter1_d)">
<rect x="2" y="84.4867" width="41.9847" height="38.5216" rx="6" fill="#C4C4C4"/>
<rect x="2.5" y="84.9867" width="40.9847" height="37.5216" rx="5.5" stroke="#989898"/>
</g>
<path d="M26.0744 108.675H19.9104L18.7385 112.191H15.0002L21.3518 95.1285H24.6096L30.9963 112.191H27.258L26.0744 108.675ZM20.8596 105.828H25.1252L22.9807 99.441L20.8596 105.828Z" fill="black"/>
<g filter="url(#filter2_d)">
<rect x="47.3435" y="43.6538" width="41.9847" height="38.5216" rx="6" fill="#C4C4C4"/>
<rect x="47.8435" y="44.1538" width="40.9847" height="37.5216" rx="5.5" stroke="#989898"/>
</g>
<path d="M72.6484 66.4363L74.9453 54.2956H78.4492L74.664 71.3581H71.125L68.3476 59.9441L65.5703 71.3581H62.0312L58.2461 54.2956H61.75L64.0586 66.4128L66.8711 54.2956H69.8476L72.6484 66.4363Z" fill="black"/>
<g filter="url(#filter3_d)">
<rect x="92.6871" y="84.4867" width="41.9847" height="38.5216" rx="6" fill="#C4C4C4"/>
<rect x="93.1871" y="84.9867" width="40.9847" height="37.5216" rx="5.5" stroke="#989898"/>
</g>
<path d="M107.398 112.191V95.1285H112.648C114.148 95.1285 115.488 95.4684 116.668 96.148C117.855 96.8199 118.781 97.7809 119.445 99.0309C120.109 100.273 120.441 101.687 120.441 103.273V104.058C120.441 105.644 120.113 107.054 119.457 108.289C118.808 109.523 117.89 110.48 116.703 111.16C115.515 111.839 114.175 112.183 112.683 112.191H107.398ZM110.914 97.9762V109.367H112.613C113.988 109.367 115.039 108.918 115.765 108.019C116.492 107.121 116.863 105.836 116.879 104.164V103.261C116.879 101.527 116.519 100.214 115.8 99.3238C115.082 98.4254 114.031 97.9762 112.648 97.9762H110.914Z" fill="black"/>
<path d="M11.6992 19V1.82031H16.8906L20.0078 13.5391L23.0898 1.82031H28.293V19H25.0703V5.47656L21.6602 19H18.3203L14.9219 5.47656V19H11.6992ZM30.9531 12.6016C30.9531 11.5078 31.2227 10.4492 31.7617 9.42578C32.3008 8.40234 33.0625 7.62109 34.0469 7.08203C35.0391 6.54297 36.1445 6.27344 37.3633 6.27344C39.2461 6.27344 40.7891 6.88672 41.9922 8.11328C43.1953 9.33203 43.7969 10.875 43.7969 12.7422C43.7969 14.625 43.1875 16.1875 41.9688 17.4297C40.7578 18.6641 39.2305 19.2812 37.3867 19.2812C36.2461 19.2812 35.1562 19.0234 34.1172 18.5078C33.0859 17.9922 32.3008 17.2383 31.7617 16.2461C31.2227 15.2461 30.9531 14.0312 30.9531 12.6016ZM34.3281 12.7773C34.3281 14.0117 34.6211 14.957 35.207 15.6133C35.793 16.2695 36.5156 16.5977 37.375 16.5977C38.2344 16.5977 38.9531 16.2695 39.5312 15.6133C40.1172 14.957 40.4102 14.0039 40.4102 12.7539C40.4102 11.5352 40.1172 10.5977 39.5312 9.94141C38.9531 9.28516 38.2344 8.95703 37.375 8.95703C36.5156 8.95703 35.793 9.28516 35.207 9.94141C34.6211 10.5977 34.3281 11.543 34.3281 12.7773ZM49.8086 19L44.793 6.55469H48.25L50.5938 12.9062L51.2734 15.0273C51.4531 14.4883 51.5664 14.1328 51.6133 13.9609C51.7227 13.6094 51.8398 13.2578 51.9648 12.9062L54.332 6.55469H57.7188L52.7734 19H49.8086ZM66.9531 15.0391L70.2344 15.5898C69.8125 16.793 69.1445 17.7109 68.2305 18.3438C67.3242 18.9688 66.1875 19.2812 64.8203 19.2812C62.6562 19.2812 61.0547 18.5742 60.0156 17.1602C59.1953 16.0273 58.7852 14.5977 58.7852 12.8711C58.7852 10.8086 59.3242 9.19531 60.4023 8.03125C61.4805 6.85938 62.8438 6.27344 64.4922 6.27344C66.3438 6.27344 67.8047 6.88672 68.875 8.11328C69.9453 9.33203 70.457 11.2031 70.4102 13.7266H62.1602C62.1836 14.7031 62.4492 15.4648 62.957 16.0117C63.4648 16.5508 64.0977 16.8203 64.8555 16.8203C65.3711 16.8203 65.8047 16.6797 66.1562 16.3984C66.5078 16.1172 66.7734 15.6641 66.9531 15.0391ZM67.1406 11.7109C67.1172 10.7578 66.8711 10.0352 66.4023 9.54297C65.9336 9.04297 65.3633 8.79297 64.6914 8.79297C63.9727 8.79297 63.3789 9.05469 62.9102 9.57812C62.4414 10.1016 62.2109 10.8125 62.2188 11.7109H67.1406Z" fill="#2B2B2B"/>
<g filter="url(#filter4_d)">
<rect x="2" y="209.343" width="132.672" height="38.5216" rx="6" fill="#C4C4C4"/>
<rect x="2.5" y="209.843" width="131.672" height="37.5216" rx="5.5" stroke="#989898"/>
</g>
<path d="M107.981 239.247C107.981 239.005 107.86 238.816 107.619 238.679C107.382 238.538 106.999 238.413 106.47 238.303C104.711 237.934 103.832 237.187 103.832 236.061C103.832 235.405 104.103 234.858 104.645 234.42C105.192 233.978 105.905 233.757 106.785 233.757C107.724 233.757 108.473 233.978 109.034 234.42C109.599 234.862 109.881 235.437 109.881 236.143H107.906C107.906 235.861 107.815 235.628 107.632 235.446C107.45 235.259 107.165 235.166 106.778 235.166C106.445 235.166 106.188 235.241 106.005 235.391C105.823 235.542 105.732 235.733 105.732 235.965C105.732 236.184 105.835 236.362 106.04 236.499C106.249 236.631 106.6 236.747 107.092 236.847C107.585 236.943 107.999 237.052 108.337 237.175C109.38 237.558 109.902 238.221 109.902 239.165C109.902 239.839 109.613 240.386 109.034 240.805C108.455 241.22 107.708 241.427 106.792 241.427C106.172 241.427 105.62 241.318 105.137 241.099C104.659 240.876 104.283 240.573 104.009 240.19C103.736 239.803 103.599 239.386 103.599 238.939H105.472C105.491 239.29 105.62 239.559 105.862 239.746C106.103 239.932 106.427 240.026 106.833 240.026C107.211 240.026 107.496 239.955 107.687 239.814C107.883 239.668 107.981 239.479 107.981 239.247ZM113.108 234.701C113.632 234.072 114.291 233.757 115.084 233.757C116.688 233.757 117.501 234.689 117.524 236.553V241.291H115.548V236.608C115.548 236.184 115.457 235.872 115.275 235.671C115.093 235.466 114.79 235.364 114.366 235.364C113.787 235.364 113.368 235.587 113.108 236.034V241.291H111.132V230.791H113.108V234.701ZM121.099 241.291H119.117V233.894H121.099V241.291ZM119.001 231.98C119.001 231.684 119.099 231.44 119.295 231.249C119.495 231.057 119.766 230.961 120.108 230.961C120.445 230.961 120.714 231.057 120.915 231.249C121.115 231.44 121.215 231.684 121.215 231.98C121.215 232.281 121.113 232.527 120.908 232.718C120.707 232.91 120.441 233.005 120.108 233.005C119.775 233.005 119.506 232.91 119.301 232.718C119.101 232.527 119.001 232.281 119.001 231.98ZM123.273 241.291V235.343H122.172V233.894H123.273V233.265C123.273 232.436 123.51 231.793 123.984 231.337C124.463 230.877 125.13 230.647 125.987 230.647C126.26 230.647 126.595 230.693 126.992 230.784L126.971 232.315C126.807 232.274 126.607 232.253 126.37 232.253C125.627 232.253 125.255 232.602 125.255 233.299V233.894H126.725V235.343H125.255V241.291H123.273ZM130.116 232.076V233.894H131.38V235.343H130.116V239.035C130.116 239.308 130.168 239.504 130.273 239.623C130.378 239.741 130.578 239.8 130.875 239.8C131.093 239.8 131.287 239.784 131.456 239.752V241.25C131.068 241.368 130.67 241.427 130.259 241.427C128.874 241.427 128.168 240.728 128.14 239.329V235.343H127.06V233.894H128.14V232.076H130.116Z" fill="black"/>
<path d="M10.8672 178.41L14.2422 178.082C14.4453 179.215 14.8555 180.047 15.4727 180.578C16.0977 181.109 16.9375 181.375 17.9922 181.375C19.1094 181.375 19.9492 181.141 20.5117 180.672C21.082 180.195 21.3672 179.641 21.3672 179.008C21.3672 178.602 21.2461 178.258 21.0039 177.977C20.7695 177.688 20.3555 177.438 19.7617 177.227C19.3555 177.086 18.4297 176.836 16.9844 176.477C15.125 176.016 13.8203 175.449 13.0703 174.777C12.0156 173.832 11.4883 172.68 11.4883 171.32C11.4883 170.445 11.7344 169.629 12.2266 168.871C12.7266 168.105 13.4414 167.523 14.3711 167.125C15.3086 166.727 16.4375 166.527 17.7578 166.527C19.9141 166.527 21.5352 167 22.6211 167.945C23.7148 168.891 24.2891 170.152 24.3438 171.73L20.875 171.883C20.7266 171 20.4062 170.367 19.9141 169.984C19.4297 169.594 18.6992 169.398 17.7227 169.398C16.7148 169.398 15.9258 169.605 15.3555 170.02C14.9883 170.285 14.8047 170.641 14.8047 171.086C14.8047 171.492 14.9766 171.84 15.3203 172.129C15.7578 172.496 16.8203 172.879 18.5078 173.277C20.1953 173.676 21.4414 174.09 22.2461 174.52C23.0586 174.941 23.6914 175.523 24.1445 176.266C24.6055 177 24.8359 177.91 24.8359 178.996C24.8359 179.98 24.5625 180.902 24.0156 181.762C23.4688 182.621 22.6953 183.262 21.6953 183.684C20.6953 184.098 19.4492 184.305 17.957 184.305C15.7852 184.305 14.1172 183.805 12.9531 182.805C11.7891 181.797 11.0938 180.332 10.8672 178.41ZM27.6367 171.555H30.707V173.383C31.1055 172.758 31.6445 172.25 32.3242 171.859C33.0039 171.469 33.7578 171.273 34.5859 171.273C36.0312 171.273 37.2578 171.84 38.2656 172.973C39.2734 174.105 39.7773 175.684 39.7773 177.707C39.7773 179.785 39.2695 181.402 38.2539 182.559C37.2383 183.707 36.0078 184.281 34.5625 184.281C33.875 184.281 33.25 184.145 32.6875 183.871C32.1328 183.598 31.5469 183.129 30.9297 182.465V188.734H27.6367V171.555ZM30.8945 177.566C30.8945 178.965 31.1719 180 31.7266 180.672C32.2812 181.336 32.957 181.668 33.7539 181.668C34.5195 181.668 35.1562 181.363 35.6641 180.754C36.1719 180.137 36.4258 179.129 36.4258 177.73C36.4258 176.426 36.1641 175.457 35.6406 174.824C35.1172 174.191 34.4688 173.875 33.6953 173.875C32.8906 173.875 32.2227 174.188 31.6914 174.812C31.1602 175.43 30.8945 176.348 30.8945 177.566ZM45.5547 184H42.2617V171.555H45.3203V173.324C45.8438 172.488 46.3125 171.938 46.7266 171.672C47.1484 171.406 47.625 171.273 48.1562 171.273C48.9062 171.273 49.6289 171.48 50.3242 171.895L49.3047 174.766C48.75 174.406 48.2344 174.227 47.7578 174.227C47.2969 174.227 46.9062 174.355 46.5859 174.613C46.2656 174.863 46.0117 175.32 45.8242 175.984C45.6445 176.648 45.5547 178.039 45.5547 180.156V184ZM51.7539 169.867V166.82H55.0469V169.867H51.7539ZM51.7539 184V171.555H55.0469V184H51.7539ZM69.7539 184H66.4609V177.648C66.4609 176.305 66.3906 175.438 66.25 175.047C66.1094 174.648 65.8789 174.34 65.5586 174.121C65.2461 173.902 64.8672 173.793 64.4219 173.793C63.8516 173.793 63.3398 173.949 62.8867 174.262C62.4336 174.574 62.1211 174.988 61.9492 175.504C61.7852 176.02 61.7031 176.973 61.7031 178.363V184H58.4102V171.555H61.4688V173.383C62.5547 171.977 63.9219 171.273 65.5703 171.273C66.2969 171.273 66.9609 171.406 67.5625 171.672C68.1641 171.93 68.6172 172.262 68.9219 172.668C69.2344 173.074 69.4492 173.535 69.5664 174.051C69.6914 174.566 69.7539 175.305 69.7539 176.266V184ZM78.8125 171.555V174.18H76.5625V179.195C76.5625 180.211 76.582 180.805 76.6211 180.977C76.668 181.141 76.7656 181.277 76.9141 181.387C77.0703 181.496 77.2578 181.551 77.4766 181.551C77.7812 181.551 78.2227 181.445 78.8008 181.234L79.082 183.789C78.3164 184.117 77.4492 184.281 76.4805 184.281C75.8867 184.281 75.3516 184.184 74.875 183.988C74.3984 183.785 74.0469 183.527 73.8203 183.215C73.6016 182.895 73.4492 182.465 73.3633 181.926C73.293 181.543 73.2578 180.77 73.2578 179.605V174.18H71.7461V171.555H73.2578V169.082L76.5625 167.16V171.555H78.8125Z" fill="#2B2B2B"/>
<g filter="url(#filter5_d)">
<rect x="2" y="327" width="220" height="38.5216" rx="6" fill="#C4C4C4"/>
<rect x="2.5" y="327.5" width="219" height="37.5216" rx="5.5" stroke="#989898"/>
</g>
<path d="M185.831 355.956C185.831 355.715 185.71 355.525 185.469 355.389C185.232 355.247 184.849 355.122 184.32 355.013C182.561 354.644 181.682 353.896 181.682 352.771C181.682 352.114 181.953 351.567 182.495 351.13C183.042 350.688 183.755 350.467 184.635 350.467C185.573 350.467 186.323 350.688 186.884 351.13C187.449 351.572 187.731 352.146 187.731 352.853H185.756C185.756 352.57 185.665 352.338 185.482 352.155C185.3 351.968 185.015 351.875 184.628 351.875C184.295 351.875 184.038 351.95 183.855 352.101C183.673 352.251 183.582 352.442 183.582 352.675C183.582 352.894 183.684 353.071 183.89 353.208C184.099 353.34 184.45 353.456 184.942 353.557C185.434 353.652 185.849 353.762 186.186 353.885C187.23 354.268 187.752 354.931 187.752 355.874C187.752 356.549 187.462 357.095 186.884 357.515C186.305 357.929 185.558 358.137 184.642 358.137C184.022 358.137 183.47 358.027 182.987 357.809C182.509 357.585 182.133 357.282 181.859 356.899C181.586 356.512 181.449 356.095 181.449 355.648H183.322C183.34 355.999 183.47 356.268 183.712 356.455C183.953 356.642 184.277 356.735 184.683 356.735C185.061 356.735 185.346 356.665 185.537 356.523C185.733 356.378 185.831 356.188 185.831 355.956ZM195.688 354.37C195.688 355.509 195.429 356.423 194.909 357.111C194.394 357.795 193.697 358.137 192.817 358.137C192.07 358.137 191.466 357.877 191.006 357.357V360.844H189.03V350.604H190.862L190.931 351.328C191.409 350.754 192.033 350.467 192.804 350.467C193.715 350.467 194.424 350.804 194.93 351.479C195.435 352.153 195.688 353.083 195.688 354.268V354.37ZM193.713 354.227C193.713 353.538 193.59 353.007 193.344 352.634C193.102 352.26 192.749 352.073 192.284 352.073C191.664 352.073 191.238 352.31 191.006 352.784V355.812C191.247 356.3 191.678 356.544 192.298 356.544C193.241 356.544 193.713 355.771 193.713 354.227ZM201.205 358C201.114 357.822 201.048 357.601 201.007 357.337C200.528 357.87 199.906 358.137 199.141 358.137C198.416 358.137 197.814 357.927 197.336 357.508C196.862 357.089 196.625 356.56 196.625 355.922C196.625 355.138 196.914 354.536 197.493 354.117C198.076 353.698 198.917 353.486 200.016 353.481H200.925V353.058C200.925 352.716 200.836 352.442 200.658 352.237C200.485 352.032 200.209 351.93 199.831 351.93C199.498 351.93 199.236 352.009 199.045 352.169C198.858 352.328 198.765 352.547 198.765 352.825H196.789C196.789 352.397 196.921 352 197.185 351.636C197.45 351.271 197.823 350.986 198.307 350.781C198.79 350.572 199.332 350.467 199.934 350.467C200.845 350.467 201.567 350.697 202.1 351.157C202.638 351.613 202.907 352.256 202.907 353.085V356.291C202.912 356.993 203.01 357.524 203.201 357.884V358H201.205ZM199.571 356.626C199.863 356.626 200.132 356.562 200.378 356.435C200.624 356.302 200.806 356.127 200.925 355.908V354.637H200.186C199.197 354.637 198.671 354.979 198.607 355.662L198.6 355.778C198.6 356.024 198.687 356.227 198.86 356.387C199.033 356.546 199.27 356.626 199.571 356.626ZM207.501 356.544C207.865 356.544 208.162 356.444 208.39 356.243C208.617 356.043 208.736 355.776 208.745 355.443H210.598C210.593 355.945 210.456 356.405 210.187 356.824C209.919 357.239 209.549 357.562 209.08 357.795C208.615 358.023 208.1 358.137 207.535 358.137C206.478 358.137 205.644 357.802 205.033 357.132C204.422 356.457 204.117 355.528 204.117 354.343V354.213C204.117 353.074 204.42 352.164 205.026 351.485C205.632 350.806 206.464 350.467 207.521 350.467C208.447 350.467 209.187 350.731 209.743 351.26C210.304 351.784 210.588 352.483 210.598 353.358H208.745C208.736 352.976 208.617 352.666 208.39 352.429C208.162 352.187 207.861 352.066 207.487 352.066C207.027 352.066 206.678 352.235 206.441 352.572C206.209 352.905 206.093 353.447 206.093 354.199V354.404C206.093 355.165 206.209 355.712 206.441 356.045C206.674 356.378 207.027 356.544 207.501 356.544ZM215.13 358.137C214.045 358.137 213.161 357.804 212.477 357.139C211.798 356.473 211.459 355.587 211.459 354.479V354.288C211.459 353.545 211.602 352.882 211.89 352.299C212.177 351.711 212.582 351.26 213.106 350.945C213.635 350.626 214.237 350.467 214.911 350.467C215.923 350.467 216.718 350.786 217.297 351.424C217.88 352.062 218.172 352.966 218.172 354.138V354.944H213.462C213.526 355.427 213.717 355.815 214.036 356.106C214.36 356.398 214.767 356.544 215.26 356.544C216.021 356.544 216.615 356.268 217.044 355.717L218.015 356.804C217.718 357.223 217.317 357.551 216.811 357.788C216.306 358.021 215.745 358.137 215.13 358.137ZM214.904 352.066C214.512 352.066 214.193 352.199 213.947 352.463C213.706 352.727 213.551 353.105 213.482 353.598H216.23V353.44C216.221 353.003 216.103 352.666 215.875 352.429C215.647 352.187 215.323 352.066 214.904 352.066Z" fill="black"/>
<path d="M17.9453 291.82H21.4023V302.695C21.4023 304.117 21.2773 305.211 21.0273 305.977C20.6914 306.977 20.082 307.781 19.1992 308.391C18.3164 308.992 17.1523 309.293 15.707 309.293C14.0117 309.293 12.707 308.82 11.793 307.875C10.8789 306.922 10.418 305.527 10.4102 303.691L13.6797 303.316C13.7188 304.301 13.8633 304.996 14.1133 305.402C14.4883 306.02 15.0586 306.328 15.8242 306.328C16.5977 306.328 17.1445 306.109 17.4648 305.672C17.7852 305.227 17.9453 304.309 17.9453 302.918V291.82ZM33.2734 309V307.137C32.8203 307.801 32.2227 308.324 31.4805 308.707C30.7461 309.09 29.9688 309.281 29.1484 309.281C28.3125 309.281 27.5625 309.098 26.8984 308.73C26.2344 308.363 25.7539 307.848 25.457 307.184C25.1602 306.52 25.0117 305.602 25.0117 304.43V296.555H28.3047V302.273C28.3047 304.023 28.3633 305.098 28.4805 305.496C28.6055 305.887 28.8281 306.199 29.1484 306.434C29.4688 306.66 29.875 306.773 30.3672 306.773C30.9297 306.773 31.4336 306.621 31.8789 306.316C32.3242 306.004 32.6289 305.621 32.793 305.168C32.957 304.707 33.0391 303.586 33.0391 301.805V296.555H36.332V309H33.2734ZM39.5078 296.555H42.543V298.254C43.6289 296.934 44.9219 296.273 46.4219 296.273C47.2188 296.273 47.9102 296.438 48.4961 296.766C49.082 297.094 49.5625 297.59 49.9375 298.254C50.4844 297.59 51.0742 297.094 51.707 296.766C52.3398 296.438 53.0156 296.273 53.7344 296.273C54.6484 296.273 55.4219 296.461 56.0547 296.836C56.6875 297.203 57.1602 297.746 57.4727 298.465C57.6992 298.996 57.8125 299.855 57.8125 301.043V309H54.5195V301.887C54.5195 300.652 54.4062 299.855 54.1797 299.496C53.875 299.027 53.4062 298.793 52.7734 298.793C52.3125 298.793 51.8789 298.934 51.4727 299.215C51.0664 299.496 50.7734 299.91 50.5938 300.457C50.4141 300.996 50.3242 301.852 50.3242 303.023V309H47.0312V302.18C47.0312 300.969 46.9727 300.188 46.8555 299.836C46.7383 299.484 46.5547 299.223 46.3047 299.051C46.0625 298.879 45.7305 298.793 45.3086 298.793C44.8008 298.793 44.3438 298.93 43.9375 299.203C43.5312 299.477 43.2383 299.871 43.0586 300.387C42.8867 300.902 42.8008 301.758 42.8008 302.953V309H39.5078V296.555ZM61.0117 296.555H64.082V298.383C64.4805 297.758 65.0195 297.25 65.6992 296.859C66.3789 296.469 67.1328 296.273 67.9609 296.273C69.4062 296.273 70.6328 296.84 71.6406 297.973C72.6484 299.105 73.1523 300.684 73.1523 302.707C73.1523 304.785 72.6445 306.402 71.6289 307.559C70.6133 308.707 69.3828 309.281 67.9375 309.281C67.25 309.281 66.625 309.145 66.0625 308.871C65.5078 308.598 64.9219 308.129 64.3047 307.465V313.734H61.0117V296.555ZM64.2695 302.566C64.2695 303.965 64.5469 305 65.1016 305.672C65.6562 306.336 66.332 306.668 67.1289 306.668C67.8945 306.668 68.5312 306.363 69.0391 305.754C69.5469 305.137 69.8008 304.129 69.8008 302.73C69.8008 301.426 69.5391 300.457 69.0156 299.824C68.4922 299.191 67.8438 298.875 67.0703 298.875C66.2656 298.875 65.5977 299.188 65.0664 299.812C64.5352 300.43 64.2695 301.348 64.2695 302.566Z" fill="#2B2B2B"/>
<defs>
<filter id="filter0_d" x="45.3435" y="84.4867" width="45.9847" height="42.5216" filterUnits="userSpaceOnUse" color-interpolation-filters="sRGB">
<feFlood flood-opacity="0" result="BackgroundImageFix"/>
<feColorMatrix in="SourceAlpha" type="matrix" values="0 0 0 0 0 0 0 0 0 0 0 0 0 0 0 0 0 0 127 0"/>
<feOffset dy="2"/>
<feGaussianBlur stdDeviation="1"/>
<feColorMatrix type="matrix" values="0 0 0 0 0 0 0 0 0 0 0 0 0 0 0 0 0 0 0.25 0"/>
<feBlend mode="normal" in2="BackgroundImageFix" result="effect1_dropShadow"/>
<feBlend mode="normal" in="SourceGraphic" in2="effect1_dropShadow" result="shape"/>
</filter>
<filter id="filter1_d" x="0" y="84.4867" width="45.9847" height="42.5216" filterUnits="userSpaceOnUse" color-interpolation-filters="sRGB">
<feFlood flood-opacity="0" result="BackgroundImageFix"/>
<feColorMatrix in="SourceAlpha" type="matrix" values="0 0 0 0 0 0 0 0 0 0 0 0 0 0 0 0 0 0 127 0"/>
<feOffset dy="2"/>
<feGaussianBlur stdDeviation="1"/>
<feColorMatrix type="matrix" values="0 0 0 0 0 0 0 0 0 0 0 0 0 0 0 0 0 0 0.25 0"/>
<feBlend mode="normal" in2="BackgroundImageFix" result="effect1_dropShadow"/>
<feBlend mode="normal" in="SourceGraphic" in2="effect1_dropShadow" result="shape"/>
</filter>
<filter id="filter2_d" x="45.3435" y="43.6538" width="45.9847" height="42.5216" filterUnits="userSpaceOnUse" color-interpolation-filters="sRGB">
<feFlood flood-opacity="0" result="BackgroundImageFix"/>
<feColorMatrix in="SourceAlpha" type="matrix" values="0 0 0 0 0 0 0 0 0 0 0 0 0 0 0 0 0 0 127 0"/>
<feOffset dy="2"/>
<feGaussianBlur stdDeviation="1"/>
<feColorMatrix type="matrix" values="0 0 0 0 0 0 0 0 0 0 0 0 0 0 0 0 0 0 0.25 0"/>
<feBlend mode="normal" in2="BackgroundImageFix" result="effect1_dropShadow"/>
<feBlend mode="normal" in="SourceGraphic" in2="effect1_dropShadow" result="shape"/>
</filter>
<filter id="filter3_d" x="90.6871" y="84.4867" width="45.9847" height="42.5216" filterUnits="userSpaceOnUse" color-interpolation-filters="sRGB">
<feFlood flood-opacity="0" result="BackgroundImageFix"/>
<feColorMatrix in="SourceAlpha" type="matrix" values="0 0 0 0 0 0 0 0 0 0 0 0 0 0 0 0 0 0 127 0"/>
<feOffset dy="2"/>
<feGaussianBlur stdDeviation="1"/>
<feColorMatrix type="matrix" values="0 0 0 0 0 0 0 0 0 0 0 0 0 0 0 0 0 0 0.25 0"/>
<feBlend mode="normal" in2="BackgroundImageFix" result="effect1_dropShadow"/>
<feBlend mode="normal" in="SourceGraphic" in2="effect1_dropShadow" result="shape"/>
</filter>
<filter id="filter4_d" x="0" y="209.343" width="136.672" height="42.5216" filterUnits="userSpaceOnUse" color-interpolation-filters="sRGB">
<feFlood flood-opacity="0" result="BackgroundImageFix"/>
<feColorMatrix in="SourceAlpha" type="matrix" values="0 0 0 0 0 0 0 0 0 0 0 0 0 0 0 0 0 0 127 0"/>
<feOffset dy="2"/>
<feGaussianBlur stdDeviation="1"/>
<feColorMatrix type="matrix" values="0 0 0 0 0 0 0 0 0 0 0 0 0 0 0 0 0 0 0.25 0"/>
<feBlend mode="normal" in2="BackgroundImageFix" result="effect1_dropShadow"/>
<feBlend mode="normal" in="SourceGraphic" in2="effect1_dropShadow" result="shape"/>
</filter>
<filter id="filter5_d" x="0" y="327" width="224" height="42.5216" filterUnits="userSpaceOnUse" color-interpolation-filters="sRGB">
<feFlood flood-opacity="0" result="BackgroundImageFix"/>
<feColorMatrix in="SourceAlpha" type="matrix" values="0 0 0 0 0 0 0 0 0 0 0 0 0 0 0 0 0 0 127 0"/>
<feOffset dy="2"/>
<feGaussianBlur stdDeviation="1"/>
<feColorMatrix type="matrix" values="0 0 0 0 0 0 0 0 0 0 0 0 0 0 0 0 0 0 0.25 0"/>
<feBlend mode="normal" in2="BackgroundImageFix" result="effect1_dropShadow"/>
<feBlend mode="normal" in="SourceGraphic" in2="effect1_dropShadow" result="shape"/>
</filter>
</defs>
</svg>
