<svg width="64" height="64" viewBox="0 0 64 64" fill="none" xmlns="http://www.w3.org/2000/svg">
<circle cx="32" cy="32" r="32" fill="black"/>
<path d="M53 19.0251C51.4915 19.7085 49.8703 20.1687 48.1688 20.3761C49.9062 19.3145 51.2404 17.6323 51.8674 15.6276C50.2428 16.6107 48.4422 17.3255 46.5254 17.7107C44.993 16.0425 42.8047 15 40.3857 15C34.9549 15 30.9642 20.1704 32.1908 25.5378C25.202 25.1805 19.0042 21.7637 14.8546 16.5707C12.6509 20.4284 13.7118 25.4751 17.4564 28.0307C16.0795 27.9853 14.7812 27.6001 13.6485 26.9568C13.5563 30.9331 16.3494 34.6532 20.3948 35.4812C19.2109 35.809 17.9143 35.8857 16.5954 35.6277C17.6648 39.0374 20.7706 41.518 24.4538 41.5878C20.9175 44.417 16.4622 45.6809 12 45.144C15.7225 47.5793 20.1453 49 24.8945 49C40.5121 49 49.3356 35.5405 48.8026 23.4686C50.446 22.2571 51.8725 20.7457 53 19.0251V19.0251Z" fill="white"/>
</svg>
